<!DOCTYPE svg PUBLIC "-//W3C//DTD SVG 1.1//EN" "http://www.w3.org/Graphics/SVG/1.1/DTD/svg11.dtd">
<svg xmlns="http://www.w3.org/2000/svg" xmlns:xlink="http://www.w3.org/1999/xlink" width="62px" height="65px" version="1.1">
	<g transform="translate(0.5,0.5)">
		<path d="M 1 51 L 1 11 C 1 5.48 14.43 1 31 1 C 47.57 1 61 5.48 61 11 L 61 51 C 61 56.52 47.57 61 31 61 C 14.43 61 1 56.52 1 51 Z" fill="#f5f5f5" stroke="#666666" stroke-width="2" stroke-miterlimit="10" pointer-events="none"/>
		<path d="M 1 11 C 1 16.52 14.43 21 31 21 C 47.57 21 61 16.52 61 11" fill="none" stroke="#666666" stroke-width="2" stroke-miterlimit="10" pointer-events="none"/>
		<path d="M 9.89 64.18 L 2.82 57.11 L 38.68 21.25 L 31.25 13.83 L 55.65 11.35 L 53.17 35.75 L 45.75 28.32 Z" fill="#dae8fc" stroke="#6c8ebf" stroke-linejoin="round" stroke-miterlimit="10" pointer-events="none"/>
	</g>
</svg>
