<!DOCTYPE svg PUBLIC "-//W3C//DTD SVG 1.1//EN" "http://www.w3.org/Graphics/SVG/1.1/DTD/svg11.dtd">
<svg xmlns="http://www.w3.org/2000/svg" xmlns:xlink="http://www.w3.org/1999/xlink" width="208px" height="162px" version="1.1">
	<g transform="translate(0.5,0.5)">
		<path d="M 90 35.75 L 148.5 1.98 L 207 35.75 L 207 94.25 L 148.5 128.02 L 90 94.25 Z" fill="#ffffff" stroke="#000000" stroke-miterlimit="10" pointer-events="none"/>
		<path d="M 90 35.75 L 148.5 69.52 L 207 35.75 M 148.5 69.52 L 148.5 128.02" fill="none" stroke="#000000" stroke-miterlimit="10" pointer-events="none"/>
		<path d="M 57.95 117.42 L 117.95 77.42 M 124.05 86.58 L 64.05 126.58 M 124.05 86.58" fill="none" stroke="#000000" stroke-linejoin="round" stroke-miterlimit="10" pointer-events="none"/>
		<path d="M 32.5 103.5 L 59.5 87.91 L 86.5 103.5 L 86.5 130.5 L 59.5 146.09 L 32.5 130.5 Z" fill="#ffffff" stroke="#000000" stroke-miterlimit="10" pointer-events="none"/>
		<path d="M 32.5 103.5 L 59.5 119.09 L 86.5 103.5 M 59.5 119.09 L 59.5 146.09" fill="none" stroke="#000000" stroke-miterlimit="10" pointer-events="none"/>
		<path d="M 7 153 L 41.91 126.82" fill="none" stroke="#000000" stroke-miterlimit="10" pointer-events="none"/>
		<path d="M 46.11 123.67 L 42.61 130.67 L 41.91 126.82 L 38.41 125.07 Z" fill="#000000" stroke="#000000" stroke-miterlimit="10" pointer-events="none"/>
	</g>
</svg>
