<!DOCTYPE svg PUBLIC "-//W3C//DTD SVG 1.1//EN" "http://www.w3.org/Graphics/SVG/1.1/DTD/svg11.dtd">
<svg xmlns="http://www.w3.org/2000/svg" xmlns:xlink="http://www.w3.org/1999/xlink" width="201px" height="154px" version="1.1">
	<g transform="translate(0.5,0.5)">
		<ellipse cx="26" cy="26" rx="25.88996763754045" ry="25.88996763754045" fill="#ffffff" stroke="#000000" pointer-events="none"/>
		<path d="M 72.55 0.15 L 111.39 26.6 L 72.55 53.05 Z" fill="#ffffff" stroke="#000000" stroke-miterlimit="10" pointer-events="none"/>
		<path d="M 141.75 0.15 L 180.58 0.15 L 200 26.6 L 180.58 53.05 L 141.75 53.05 L 122.33 26.6 Z" fill="#ffffff" stroke="#000000" stroke-miterlimit="10" pointer-events="none"/>
		<path d="M 81.26 110.34 C 81.26 95.67 120.09 95.67 120.09 110.34 L 120.09 141.24 C 120.09 155.91 81.26 155.91 81.26 141.24 Z" fill="#ffffff" stroke="#000000" stroke-miterlimit="10" pointer-events="none"/>
		<path d="M 81.26 110.34 C 81.26 121.34 120.09 121.34 120.09 110.34" fill="none" stroke="#000000" stroke-miterlimit="10" pointer-events="none"/>
		<path d="M 110 -27 L 105 -27 Q 100 -27 100 -17 L 100 63 Q 100 73 95 73 L 92.5 73 Q 90 73 95 73 L 97.5 73 Q 100 73 100 83 L 100 163 Q 100 173 105 173 L 110 173" fill="none" stroke="#000000" stroke-miterlimit="10" transform="rotate(-90,100,73)" pointer-events="none"/>
	</g>
</svg>
